<svg xmlns="http://www.w3.org/2000/svg" viewBox="0 0 1040 1100" width="1040" height="1100" font-family="Inter, Segoe UI, Helvetica, Arial, sans-serif">
  <defs>
    <marker id="arr" viewBox="0 0 10 10" refX="9" refY="5" markerWidth="8" markerHeight="8" orient="auto-start-reverse"><path d="M0,0 L10,5 L0,10 Z" fill="#334155"/></marker>
    <marker id="arrBlue" viewBox="0 0 10 10" refX="9" refY="5" markerWidth="8" markerHeight="8" orient="auto-start-reverse"><path d="M0,0 L10,5 L0,10 Z" fill="#2563eb"/></marker>
    <marker id="arrGreen" viewBox="0 0 10 10" refX="9" refY="5" markerWidth="8" markerHeight="8" orient="auto-start-reverse"><path d="M0,0 L10,5 L0,10 Z" fill="#059669"/></marker>
    <marker id="arrRed" viewBox="0 0 10 10" refX="9" refY="5" markerWidth="8" markerHeight="8" orient="auto-start-reverse"><path d="M0,0 L10,5 L0,10 Z" fill="#dc2626"/></marker>
    <marker id="arrPurple" viewBox="0 0 10 10" refX="9" refY="5" markerWidth="8" markerHeight="8" orient="auto-start-reverse"><path d="M0,0 L10,5 L0,10 Z" fill="#7c3aed"/></marker>
    <marker id="arrAmber" viewBox="0 0 10 10" refX="9" refY="5" markerWidth="8" markerHeight="8" orient="auto-start-reverse"><path d="M0,0 L10,5 L0,10 Z" fill="#d97706"/></marker>
    <filter id="sh" x="-10%" y="-10%" width="120%" height="130%"><feDropShadow dx="0" dy="2" stdDeviation="2" flood-color="#0f172a" flood-opacity="0.12"/></filter>
  </defs>
  <rect width="1040" height="1100" fill="#ffffff"/>
  <text x="520.0" y="36" text-anchor="middle" font-size="22" font-weight="700" fill="#0f172a">doradura · download pipeline (mp3 / mp4)</text>
  <text x="520.0" y="58" text-anchor="middle" font-size="12" fill="#64748b">crates/dorabot/src/download/pipeline.rs — execute() / download_phase()</text>
  <rect x="330" y="86" width="260" height="44" rx="10" ry="10" fill="#eff6ff" stroke="#2563eb" stroke-width="1.5" filter="url(#sh)"/>
  <text x="460.0" y="108" text-anchor="middle" font-size="14" font-weight="700" fill="#0f172a">User sends URL</text>
  <text x="460.0" y="126" text-anchor="middle" font-size="10" fill="#475569">mp3 / mp4  ·  bitrate / quality / time_range</text>
  <path d="M 460.0,160 L 610,200.0 L 460.0,240 L 310,200.0 Z" fill="#fef9c3" stroke="#ca8a04" stroke-width="1.5" filter="url(#sh)"/>
  <text x="460.0" y="198.0" text-anchor="middle" font-size="13" font-weight="700" fill="#0f172a">Cache hit?</text>
  <text x="460.0" y="214.0" text-anchor="middle" font-size="10" fill="#475569">vault · cross-user file_id · preview</text>
  <rect x="330" y="274" width="260" height="60" rx="10" ry="10" fill="#fce7f3" stroke="#be185d" stroke-width="1.5" filter="url(#sh)"/>
  <text x="460.0" y="296" text-anchor="middle" font-size="14" font-weight="700" fill="#0f172a">Resolve source</text>
  <text x="460.0" y="314" text-anchor="middle" font-size="11" fill="#475569">SourceRegistry → yt-dlp · HTTP · Instagram · vlipsy</text>
  <rect x="330" y="358" width="260" height="60" rx="10" ry="10" fill="#ecfeff" stroke="#0891b2" stroke-width="1.5" filter="url(#sh)"/>
  <text x="460.0" y="380" text-anchor="middle" font-size="14" font-weight="700" fill="#0f172a">Get metadata</text>
  <text x="460.0" y="398" text-anchor="middle" font-size="11" fill="#475569">PREVIEW_CACHE → sanitize (strip NA, split A - T)</text>
  <rect x="330" y="442" width="260" height="72" rx="10" ry="10" fill="#fff7ed" stroke="#ea580c" stroke-width="1.5" filter="url(#sh)"/>
  <text x="460.0" y="464" text-anchor="middle" font-size="14" font-weight="700" fill="#0f172a">Pre-checks</text>
  <text x="460" y="482" text-anchor="middle" font-size="11" fill="#334155">disk_space · is_livestream · estimate_size</text>
  <text x="460" y="498" text-anchor="middle" font-size="10" fill="#64748b">reject if disk low / live / too large</text>
  <rect x="330" y="538" width="260" height="94" rx="10" ry="10" fill="#f0f9ff" stroke="#0284c7" stroke-width="1.5" filter="url(#sh)"/>
  <text x="460.0" y="560" text-anchor="middle" font-size="14" font-weight="700" fill="#0f172a">Download with progress</text>
  <text x="460" y="580" text-anchor="middle" font-size="11" fill="#334155">source.download(req, progress_tx) · 16 fragments</text>
  <text x="460" y="596" text-anchor="middle" font-size="11" fill="#334155">tokio::select! loop → progress_msg every ≥5%</text>
  <text x="460" y="612" text-anchor="middle" font-size="10" fill="#64748b">disk re-poll every ~25% · abort on full</text>
  <text x="460" y="670" text-anchor="middle" font-size="12" fill="#64748b" font-style="italic">post-process by format</text>
  <rect x="80" y="680" width="340" height="118" rx="10" ry="10" fill="#fef3c7" stroke="#d97706" stroke-width="1.5" filter="url(#sh)"/>
  <text x="250.0" y="702" text-anchor="middle" font-size="14" font-weight="700" fill="#0f172a">Audio  (mp3)</text>
  <text x="250.0" y="724" text-anchor="middle" font-size="11" fill="#334155">apply_speed_to_file — ffmpeg -af atempo</text>
  <text x="250.0" y="742" text-anchor="middle" font-size="10" fill="#64748b">(only when time_range + speed set)</text>
  <text x="250.0" y="762" text-anchor="middle" font-size="11" fill="#334155">send_audio_with_retry → Telegram</text>
  <text x="250.0" y="780" text-anchor="middle" font-size="10" fill="#64748b">+ audio_effects button (Edit / Cut)</text>
  <rect x="500" y="680" width="460" height="118" rx="10" ry="10" fill="#e0e7ff" stroke="#4f46e5" stroke-width="1.5" filter="url(#sh)"/>
  <text x="730.0" y="702" text-anchor="middle" font-size="14" font-weight="700" fill="#0f172a">Video  (mp4)</text>
  <text x="730.0" y="724" text-anchor="middle" font-size="11" fill="#334155">probe_video_metadata (ffprobe) · has_audio_and_video</text>
  <text x="730.0" y="742" text-anchor="middle" font-size="11" fill="#334155">burn_subtitles_into_video · split_video_into_parts</text>
  <text x="730.0" y="762" text-anchor="middle" font-size="11" fill="#334155">send_video_with_retry → Telegram</text>
  <text x="730.0" y="780" text-anchor="middle" font-size="10" fill="#64748b">carousel / photo → send_media_group</text>
  <rect x="330" y="830" width="260" height="72" rx="10" ry="10" fill="#dcfce7" stroke="#059669" stroke-width="1.5" filter="url(#sh)"/>
  <text x="460.0" y="852" text-anchor="middle" font-size="14" font-weight="700" fill="#0f172a">Save history · Vault · Cleanup</text>
  <text x="460" y="870" text-anchor="middle" font-size="11" fill="#334155">save_download_history + categorizer (spawn)</text>
  <text x="460" y="886" text-anchor="middle" font-size="11" fill="#334155">send_to_vault_background · schedule_cleanup</text>
  <rect x="330" y="926" width="260" height="44" rx="10" ry="10" fill="#f0fdf4" stroke="#16a34a" stroke-width="1.5" filter="url(#sh)"/>
  <text x="460.0" y="948" text-anchor="middle" font-size="14" font-weight="700" fill="#0f172a">Success reaction + auto-clear</text>
  <text x="460.0" y="966" text-anchor="middle" font-size="10" fill="#475569">progress_msg.clear_after(CLEAR_DELAY_SECS)</text>
  <rect x="810" y="434" width="210" height="180" rx="10" ry="10" fill="#fee2e2" stroke="#dc2626" stroke-width="1.5" filter="url(#sh)"/>
  <text x="915.0" y="456" text-anchor="middle" font-size="14" font-weight="700" fill="#0f172a">Error path</text>
  <text x="915.0" y="476" text-anchor="middle" font-size="11" fill="#334155">PipelineError</text>
  <text x="915.0" y="492" text-anchor="middle" font-size="10" fill="#64748b">Metadata · PreCheck · Operational</text>
  <text x="915.0" y="516" text-anchor="middle" font-size="11" fill="#334155">analyze_ytdlp_error</text>
  <text x="915.0" y="532" text-anchor="middle" font-size="10" fill="#64748b">🍪 cookies · 🤖 bot · 🚫 unavail</text>
  <text x="915.0" y="548" text-anchor="middle" font-size="10" fill="#64748b">🌐 net · 📦 frag · 💾 disk</text>
  <text x="915.0" y="572" text-anchor="middle" font-size="11" fill="#334155">handle_pipeline_error</text>
  <text x="915.0" y="588" text-anchor="middle" font-size="10" fill="#64748b">sticker · admin alert · metrics</text>
  <path d="M 310,200 C 140,200 60,520 60,830 L 330,830" stroke="#7c3aed" stroke-width="2" fill="none" marker-end="url(#arrPurple)"/>
  <rect x="-17.0" y="331" width="194" height="16" fill="#ffffff" opacity="0.95" rx="3"/>
  <text x="80" y="343" text-anchor="middle" font-size="11" fill="#7c3aed">cache hit · file_id → Telegram</text>
  <path d="M 460,130 L 460,160" stroke="#334155" stroke-width="2" fill="none" marker-end="url(#arr)"/>
  <path d="M 460,240 L 460,274" stroke="#2563eb" stroke-width="2.5" fill="none" marker-end="url(#arrBlue)"/>
  <rect x="510.0" y="251" width="44" height="16" fill="#ffffff" opacity="0.95" rx="3"/>
  <text x="532" y="263" text-anchor="middle" font-size="11" fill="#334155">miss</text>
  <path d="M 460,334 L 460,358" stroke="#2563eb" stroke-width="2.5" fill="none" marker-end="url(#arrBlue)"/>
  <path d="M 460,418 L 460,442" stroke="#2563eb" stroke-width="2.5" fill="none" marker-end="url(#arrBlue)"/>
  <path d="M 460,514 L 460,538" stroke="#2563eb" stroke-width="2.5" fill="none" marker-end="url(#arrBlue)"/>
  <path d="M 460,632 L 460,660" stroke="#2563eb" stroke-width="2.5" fill="none" marker-end="url(#arrBlue)"/>
  <path d="M 460,660 L 460,676" stroke="#2563eb" stroke-width="2" fill="none"/>
  <path d="M 460,676 L 250.0,676 L 250.0,680" stroke="#d97706" stroke-width="2" fill="none" marker-end="url(#arrAmber)"/>
  <path d="M 460,676 L 730.0,676 L 730.0,680" stroke="#4f46e5" stroke-width="2" fill="none" marker-end="url(#arrBlue)"/>
  <path d="M 250.0,798 L 250.0,810 L 460,810 L 460,828" stroke="#d97706" stroke-width="2" fill="none" marker-end="url(#arrAmber)"/>
  <path d="M 730.0,798 L 730.0,810 L 460,810" stroke="#4f46e5" stroke-width="2" fill="none" marker-end="url(#arr)"/>
  <path d="M 460,902 L 460,926" stroke="#059669" stroke-width="2.5" fill="none" marker-end="url(#arrGreen)"/>
  <path d="M 590,478 L 810,478" stroke="#dc2626" stroke-width="2" fill="none" marker-end="url(#arrRed)" stroke-dasharray="5,3"/>
  <rect x="745.0" y="459" width="50" height="16" fill="#ffffff" opacity="0.95" rx="3"/>
  <text x="770" y="471" text-anchor="middle" font-size="11" fill="#dc2626">reject</text>
  <path d="M 590,580 L 810,580" stroke="#dc2626" stroke-width="2" fill="none" marker-end="url(#arrRed)" stroke-dasharray="5,3"/>
  <rect x="748.0" y="561" width="44" height="16" fill="#ffffff" opacity="0.95" rx="3"/>
  <text x="770" y="573" text-anchor="middle" font-size="11" fill="#dc2626">fail</text>
  <rect x="60" y="1010" width="920" height="48" rx="8" ry="8" fill="#f8fafc" stroke="#cbd5e1"/>
  <text x="80" y="1038" font-size="12" font-weight="700" fill="#0f172a">Legend</text>
  <line x1="148" y1="1034" x2="178" y2="1034" stroke="#2563eb" stroke-width="3"/>
  <text x="184" y="1038" font-size="11" fill="#334155">main flow</text>
  <line x1="288" y1="1034" x2="318" y2="1034" stroke="#7c3aed" stroke-width="3"/>
  <text x="324" y="1038" font-size="11" fill="#334155">cache bypass</text>
  <line x1="428" y1="1034" x2="458" y2="1034" stroke="#d97706" stroke-width="3"/>
  <text x="464" y="1038" font-size="11" fill="#334155">audio</text>
  <line x1="568" y1="1034" x2="598" y2="1034" stroke="#4f46e5" stroke-width="3"/>
  <text x="604" y="1038" font-size="11" fill="#334155">video</text>
  <line x1="708" y1="1034" x2="738" y2="1034" stroke="#059669" stroke-width="3"/>
  <text x="744" y="1038" font-size="11" fill="#334155">terminal</text>
  <line x1="848" y1="1034" x2="878" y2="1034" stroke="#dc2626" stroke-width="3"/>
  <text x="884" y="1038" font-size="11" fill="#334155">error</text>
</svg>